<?xml version="1.0" standalone="no"?><!DOCTYPE svg PUBLIC "-//W3C//DTD SVG 1.1//EN" "http://www.w3.org/Graphics/SVG/1.1/DTD/svg11.dtd"><svg t="1533028897756" class="icon" style="" viewBox="0 0 1024 1024" version="1.1" xmlns="http://www.w3.org/2000/svg" p-id="3929" xmlns:xlink="http://www.w3.org/1999/xlink" width="200" height="200"><defs><style type="text/css"></style></defs><path d="M971.252738 1024H40.784427c-40.937945 0-38.379323-76.758646-38.379323-76.758646a511.059067 511.059067 0 0 1 231.043526-428.057384 69.440989 69.440989 0 0 1 79.931337 2.814483 331.418248 331.418248 0 0 0 399.14496 0 69.440989 69.440989 0 0 1 79.931337-2.814483A511.110239 511.110239 0 0 1 1023.448617 947.241354c0 40.682083-17.424213 76.758646-52.195879 76.758646zM556.193151 508.437759a256.09243 256.09243 0 1 1 208.450897-209.03938 255.862154 255.862154 0 0 1-208.450897 209.03938z" fill="#333333" p-id="3930"></path></svg>