<?xml version="1.0" standalone="no"?><!DOCTYPE svg PUBLIC "-//W3C//DTD SVG 1.1//EN" "http://www.w3.org/Graphics/SVG/1.1/DTD/svg11.dtd"><svg t="1531865626384" class="icon" style="" viewBox="0 0 1024 1024" version="1.1" xmlns="http://www.w3.org/2000/svg" p-id="12647" xmlns:xlink="http://www.w3.org/1999/xlink" width="40" height="40"><defs><style type="text/css"></style></defs><path d="M460.1856 12.71808c-55.61344 5.65248-117.3504 23.56224-169.18528 49.24416-102.26688 50.65728-178.3808 126.53568-228.80256 228.80256-121.82528 245.53472-22.14912 544.09216 222.91456 668.50816 247.18336 125.5936 548.5568 26.85952 674.1504-220.55936 98.49856-193.6896 61.0304-427.91936-92.60032-581.31456C760.39168 50.8928 610.51904-2.36544 460.1856 12.71808z m218.91072 207.59552l12.24704 2.82624-58.43968 58.43968L574.464 340.0192l56.08448 55.84896 55.84896 56.08448 58.6752-58.6752c57.96864-57.96864 58.91072-58.6752 61.26592-52.55168 5.18144 13.43488 8.00768 38.64576 6.59456 60.32384-3.5328 63.15008-39.35232 116.64384-97.08544 145.38752-28.74368 14.14144-49.00864 18.14528-84.82816 16.73216-15.55456-0.70656-32.28672-2.59072-37.23264-4.23936l-8.94976-3.06176L460.65664 680.0384c-84.59264 84.35712-126.30016 124.416-130.77504 125.5936-16.96768 4.00384-21.9136 0.94208-61.0304-38.64576l-37.23264-37.23264v-25.69216l123.00288-122.99264 123.00288-122.99264-4.00384-12.4928c-24.50432-79.4112 7.30112-164.94592 77.056-205.71136 37.45792-21.9136 86.24128-29.45024 128.41984-19.5584z" p-id="12648" fill="#1296db"></path></svg>